<svg xmlns="http://www.w3.org/2000/svg" version="1.1" xmlns:xlink="http://www.w3.org/1999/xlink" xmlns:svgjs="http://svgjs.dev/svgjs" width="1440" height="560" preserveAspectRatio="none" viewBox="0 0 1440 560"><g mask="url(&quot;#SvgjsMask1030&quot;)" fill="none"><rect width="1440" height="560" x="0" y="0" fill="rgba(30, 39, 46, 1)"></rect><path d="M920.31,355.89C960.373,354.913,994.324,330.528,1015.456,296.478C1038.023,260.117,1051.55,215.18,1030.903,177.695C1009.693,139.187,964.273,123.886,920.31,123.737C876.043,123.587,830.706,138.698,808.41,176.94C785.977,215.417,793.156,263.561,816.77,301.325C838.939,336.778,878.508,356.91,920.31,355.89" fill="rgba(28, 83, 142, 0.4)" class="triangle-float1"></path><path d="M347.8370410084082 6.448303896619377L287.6217153165445-19.111585409435953 279.38954420339337 83.99134778138728z" fill="rgba(28, 83, 142, 0.4)" class="triangle-float2"></path><path d="M-88.18 460.21 a117.14 117.14 0 1 0 234.28 0 a117.14 117.14 0 1 0 -234.28 0z" fill="rgba(28, 83, 142, 0.4)" class="triangle-float2"></path><path d="M1310.456523334869 57.28180241719402L1342.381631578251 176.8837449604786 1420.222456814608 101.71373380800922z" fill="rgba(28, 83, 142, 0.4)" class="triangle-float2"></path><path d="M87.69533685246407 244.51219282135872L24.615939763495412 349.4939391555703 129.59768609770694 412.5733362445389 192.6770831866756 307.5915899103274z" fill="rgba(28, 83, 142, 0.4)" class="triangle-float2"></path><path d="M1219.6250196132883 519.3330047692539L1174.9453727198797 402.9385452328547 1058.5509131834806 447.61819212626335 1103.230560076889 564.0126516626625z" fill="rgba(28, 83, 142, 0.4)" class="triangle-float2"></path><path d="M1319.326326175275 324.8878722561845L1355.889334696023 197.37750823064894 1228.3789706704877 160.81449970990076 1191.8159621497393 288.3248637354363z" fill="rgba(28, 83, 142, 0.4)" class="triangle-float2"></path><path d="M649.348,153.476C683.498,153.048,718.036,139.968,734.51,110.051C750.521,80.974,741.61,45.925,724.099,17.726C707.673,-8.727,680.486,-27.012,649.348,-27.092C618.074,-27.173,590.753,-9.023,573.925,17.338C555.498,46.204,543.809,82.278,560.405,112.234C577.379,142.872,614.325,153.915,649.348,153.476" fill="rgba(28, 83, 142, 0.4)" class="triangle-float3"></path><path d="M1291.503117914871 46.331151199331245L1193.6012174473512 53.17711898223578 1200.4471852302559 151.07901944975544 1298.3490856977755 144.23305166685088z" fill="rgba(28, 83, 142, 0.4)" class="triangle-float1"></path><path d="M887.2749776169267 255.82377568321334L937.8666270592096 411.5288622902689 1093.5717136662652 360.93721284798596 1042.9800642239823 205.23212624093043z" fill="rgba(28, 83, 142, 0.4)" class="triangle-float2"></path><path d="M387.12,185.341C408.423,184.595,429.512,175.929,439.748,157.232C449.649,139.147,444.223,117.687,433.942,99.815C423.627,81.882,407.754,67.229,387.12,65.742C363.709,64.055,339.351,72.18,326.942,92.104C313.899,113.046,314.313,140.429,327.692,161.158C340.122,180.417,364.212,186.144,387.12,185.341" fill="rgba(28, 83, 142, 0.4)" class="triangle-float2"></path></g><defs><mask id="SvgjsMask1030"><rect width="1440" height="560" fill="#ffffff"></rect></mask><style>
                @keyframes float1 {
                    0%{transform: translate(0, 0)}
                    50%{transform: translate(-10px, 0)}
                    100%{transform: translate(0, 0)}
                }

                .triangle-float1 {
                    animation: float1 5s infinite;
                }

                @keyframes float2 {
                    0%{transform: translate(0, 0)}
                    50%{transform: translate(-5px, -5px)}
                    100%{transform: translate(0, 0)}
                }

                .triangle-float2 {
                    animation: float2 4s infinite;
                }

                @keyframes float3 {
                    0%{transform: translate(0, 0)}
                    50%{transform: translate(0, -10px)}
                    100%{transform: translate(0, 0)}
                }

                .triangle-float3 {
                    animation: float3 6s infinite;
                }
            </style></defs></svg>