<?xml version="1.0" encoding="UTF-8"?>
<svg id="Layer_1" data-name="Layer 1" xmlns="http://www.w3.org/2000/svg" viewBox="0 0 449.23 526.19">
  <defs>
    <style>
      .cls-1 {
        fill: #1e272e;
        stroke-width: 0px;
      }

      .cls-2 {
        opacity: .99;
      }
    </style>
  </defs>
  <g class="cls-2">
    <path class="cls-1" d="m94.24,353.97c-1.88,3.39-3.48,6.54-4.8,9.45-1.32,2.92-2.64,5.7-3.95,8.33-.85,1.79-1.65,3.27-2.4,4.44-.75,1.17-1.48,2.16-2.18,2.96-.71.8-1.48,1.48-2.33,2.05-.84.56-1.74,1.13-2.68,1.69-3.39,2.07-7.05,4.09-11,6.07-3.95,1.97-8,3.95-12.13,5.92-4.7,2.26-9.13,4.82-13.26,7.69-4.14,2.87-7.85,5.85-11.15,8.96-3.29,3.1-6.16,6.25-8.6,9.45-2.45,3.2-4.33,6.25-5.64,9.18-.19.46-.43.91-.7,1.34-.29.43-.71.63-1.27.63s-.9-.28-.99-.84c-.1-.56-.14-1.13-.14-1.69,0-.38.12-1.32.35-2.82.24-1.51.52-3.25.85-5.23.33-1.97.71-3.97,1.13-5.99.43-2.03.87-3.74,1.34-5.15.85-3.11,1.98-6.18,3.39-9.25,1.41-3.05,3.48-6.28,6.21-9.66l-.28-.84c-7.53-3.2-13.4-7.36-17.64-12.48-4.23-5.13-6.35-11.78-6.35-19.97,0-3.29.51-7.17,1.55-11.63,1.03-4.47,2.96-9.52,5.78-15.17,3.1-6.39,6.96-11.19,11.57-14.39,4.61-3.19,10.16-4.79,16.65-4.79,3.67,0,7.22.45,10.65,1.34,3.43.9,6.49,2.07,9.17,3.52,2.68,1.46,4.91,3.18,6.7,5.15,1.79,1.98,2.87,4,3.25,6.07.28,1.6.49,3.25.63,4.94.14,1.69.28,3.52.42,5.5.14,1.97.31,4.09.49,6.35.09,2.26.37,4.75.85,7.47,0,.56-.1,1.08-.28,1.55-.19.47-.56.7-1.13.7s-.99-.28-1.27-.84c-.28-.56-.52-1.13-.7-1.69-1.04-3.01-2.73-5.62-5.08-7.83-2.35-2.21-5.15-4.02-8.39-5.43-3.24-1.41-6.75-2.47-10.51-3.17-3.76-.71-7.53-1.06-11.29-1.06-2.35,0-4.61.23-6.77.7-2.16.47-4.09,1.13-5.79,1.97-1.69.85-3.03,1.84-4.02,2.97-.99,1.13-1.48,2.35-1.48,3.66,0,3.67,1.27,7.06,3.81,10.16,2.54,3.11,5.76,5.78,9.67,8.04,3.9,2.26,8.13,4.03,12.7,5.3,4.56,1.27,8.91,1.9,13.05,1.9,4.51,0,10.23-1.29,17.14-3.88,6.91-2.58,15.49-6.84,25.74-12.76l1.13,1.13Z"/>
    <path class="cls-1" d="m143.09,249.43c-.61.73-1.1,1.1-1.46,1.1s-.55-.43-.55-1.28v-.73c.13-.25.31-1.04.55-2.38.25-1.22.49-2.69.73-4.39.36-1.72.79-3.48,1.28-5.31.49-1.83,1.1-3.57,1.83-5.22.73-1.65,1.77-3.14,3.11-4.49,4.15-4.14,9.07-7.96,14.75-11.44,5.67-3.48,11.62-6.74,17.86-9.8,6.22-3.05,12.63-5.98,19.23-8.79,6.47-2.68,12.73-5.4,18.77-8.15,6.04-2.74,11.6-5.58,16.67-8.51,5.06-2.93,9.3-6.05,12.72-9.34.73-.73,1.28-1.1,1.65-1.1.24,0,.37.19.37.55v.18c-.13.13-.19.25-.19.37-.36,1.09-.79,2.5-1.27,4.21-.49,1.83-1.07,3.69-1.75,5.58-.67,1.9-1.43,3.73-2.29,5.49-.85,1.77-1.77,3.15-2.75,4.12-3.17,3.06-7.16,5.93-11.99,8.61-4.83,2.69-10.13,5.37-15.93,8.06-5.8,2.69-11.9,5.49-18.31,8.42-6.41,2.93-12.78,6.11-19.13,9.52-6.35,3.42-12.42,7.14-18.22,11.17-5.79,4.02-11.01,8.54-15.65,13.55Z"/>
    <g>
      <path class="cls-1" d="m59.67,205.14c1.98-5.64,4-11.38,6.06-17.21,1.98-5.83,4.19-11.94,6.63-18.34h1.13c7.24,16.36,13.42,32.92,18.55,49.66,5.13,16.74,9.38,33.86,12.77,51.35,3.29,17.49,6.98,33.88,11.07,49.16,4.09,15.28,8.39,28.8,12.91,40.56l-2.82,11.85c-2.16,0-4.51-.83-7.05-2.47-2.54-1.64-5.22-4.75-8.04-9.31-2.82-4.56-5.67-10.86-8.53-18.91-2.87-8.04-5.62-18.5-8.25-31.38-3.1-14.76-7.53-30.85-13.26-48.25-5.74-17.4-12.79-36.3-21.16-56.71Z"/>
      <path class="cls-1" d="m97.2,270.17c2.82,3.29,5.03,6.37,6.63,9.24,1.6,2.86,2.68,5.52,3.24,7.97.28,1.23.75,3.2,1.41,5.93.66,2.73,1.46,5.87,2.4,9.45.94,3.57,1.98,7.43,3.11,11.56,1.13,4.14,2.3,8.22,3.52,12.28,2.35,8.09,4.94,14.97,7.76,20.66,2.82,5.69,5.97,10.3,9.45,13.83,3.48,3.52,7.36,6.08,11.64,7.69,4.28,1.59,9.14,2.4,14.6,2.4,2.82,0,5.86-.47,9.1-1.41,3.25-.94,6.44-2.21,9.59-3.8,3.15-1.61,6.16-3.46,9.03-5.57,2.87-2.12,5.41-4.4,7.62-6.84,2.21-2.45,3.97-4.94,5.3-7.48,1.31-2.54,1.97-5.08,1.97-7.61,0-6.68-1.36-14.04-4.09-22.08-2.73-8.05-7.29-17.24-13.69-27.58,2.16-5.55,4.46-11.24,6.91-17.07,2.45-5.83,5.31-12.09,8.61-18.76h1.41c6.77,12.23,11.75,23.47,14.95,33.71,3.2,10.25,4.8,19.8,4.8,28.64,0,4.98-.73,10.37-2.19,16.15-1.46,5.79-3.18,12.16-5.15,19.12-1.41,5.26-2.95,10.37-4.58,15.31-1.65,4.94-3.6,9.62-5.86,14.04-5.64,10.91-12.32,18.91-20.03,23.99-7.71,5.08-15.99,7.61-24.83,7.61-5.83,0-11.43-1.13-16.79-3.39-5.36-2.26-10.37-5.64-15.02-10.16-4.65-4.51-8.94-10.23-12.84-17.14-3.9-6.91-7.27-15.03-10.09-24.33-1.88-6.4-3.62-12.86-5.22-19.4-1.6-6.53-2.96-12.62-4.09-18.27-1.13-5.64-2.02-10.58-2.68-14.81-.66-4.24-.99-7.24-.99-9.03,0-4.42.28-8.75.85-12.98.56-4.23,1.41-8.18,2.54-11.85h1.69Z"/>
    </g>
    <path class="cls-1" d="m340.89,279.03c0,4.33-.47,8.16-1.41,11.49-.94,3.34-2.26,6.42-3.95,9.24s-3.66,5.48-5.92,7.98c-2.26,2.49-4.71,5.1-7.34,7.82-2.73,2.74-5.57,5.67-8.53,8.82-2.97,3.15-5.95,6.75-8.96,10.79-5.93,7.81-11.03,15.57-15.31,23.28-4.28,7.71-8.14,15.36-11.57,22.93-3.43,7.58-6.61,15.07-9.52,22.5-3.01,7.43-6.16,14.76-9.45,22.01-3.3,7.24-6.99,14.36-11.08,21.37-4.09,7-8.91,13.84-14.46,20.52-4.99,6.02-10.46,11.43-16.43,16.23-5.98,4.79-12.34,9.05-19.12,12.77-6.77,3.71-13.89,6.93-21.37,9.66-7.47,2.72-15.12,4.98-22.92,6.77-6.11,1.5-11.73,3.01-16.86,4.51-5.13,1.5-9.57,2.91-13.33,4.23-3.86,1.22-7.01,2.23-9.45,3.04-2.45.8-4.09,1.2-4.94,1.2-.47,0-.87-.07-1.2-.22-.33-.14-.49-.45-.49-.91s.19-.85.56-1.13c.37-.29.94-.66,1.69-1.13,3.95-2.16,8.46-4.75,13.54-7.76,5.08-3.01,10.39-6.3,15.94-9.88,5.55-3.57,11.22-7.36,17-11.36,5.78-4,11.4-8.06,16.86-12.2,5.45-4.14,10.61-8.26,15.45-12.34,4.84-4.09,9.14-8.07,12.91-11.92,11.01-11.1,20.43-22.18,28.28-33.22,7.85-11.05,14.69-21.8,20.53-32.23,5.83-10.44,10.95-20.5,15.38-30.19,4.32-9.59,8.49-18.62,12.48-27.09,4-8.46,8.09-16.24,12.28-23.34,4.18-7.1,9.05-13.23,14.6-18.41,5.92-5.64,11.9-10.06,17.92-13.26,6.01-3.2,12.08-4.8,18.2-4.8v4.24Z"/>
    <path class="cls-1" d="m286.1,53.89c11.24-3.03,20.92-6.58,29.04-10.66,8.12-4.07,14.56-8.67,19.31-13.78v-.18c-2.44-.18-4.58-.46-6.42-.85-1.84-.39-3.37-.98-4.59-1.78-1.22-.8-2.13-1.86-2.72-3.17-.59-1.31-.89-2.94-.89-4.91,0-2.14.42-4.31,1.25-6.51.84-2.2,1.96-4.19,3.39-5.98,1.43-1.78,3.14-3.24,5.13-4.37,1.99-1.13,4.15-1.7,6.47-1.7,1.66,0,3.15.45,4.46,1.34,1.31.89,2.41,2.05,3.3,3.48.89,1.43,1.57,3.08,2.05,4.95.48,1.87.71,3.79.71,5.76,0,1.6-.18,3.21-.53,4.82v.36c3.21.36,5.29.84,6.24,1.43.95.6,1.43,1.37,1.43,2.32,0,1.01-.26,2.19-.8,3.52-.53,1.34-1.16,2.6-1.87,3.79h-.54c-.89-.71-2.05-1.28-3.48-1.69-1.43-.42-3.18-.62-5.26-.62-1.73,3.03-3.81,5.75-6.25,8.16-2.44,2.41-5.03,4.57-7.76,6.47-2.74,1.9-5.52,3.54-8.34,4.91-2.82,1.37-5.51,2.5-8.07,3.39-2.56.89-4.86,1.54-6.92,1.96-2.05.42-3.64.62-4.77.62-1.25,0-2.41-.09-3.48-.27-1.07-.18-2.05-.27-2.94-.27-1.25,0-2.59.15-4.01.44-1.43.3-2.44.44-3.04.44-.42,0-.77-.06-1.07-.18-.29-.12-.44-.27-.44-.45,0-.3.48-.57,1.43-.8Zm56.03-33.72c-.48-3.51-1.47-6.29-2.99-8.34-1.52-2.05-3.68-3.08-6.47-3.08-1.37,0-2.57.18-3.61.53-1.04.36-1.92.79-2.63,1.3s-1.25,1.06-1.61,1.65c-.36.6-.53,1.1-.53,1.52,0,1.37.43,2.48,1.3,3.34.86.86,2.06,1.55,3.61,2.05,1.54.51,3.4.86,5.57,1.07s4.57.31,7.18.31l.18-.36Z"/>
    <path class="cls-1" d="m377.28,84.77c-.75,2.35-1.86,5.2-3.32,8.53-1.45,3.34-2.98,6.56-4.58,9.66-1.6,3.11-3.1,5.74-4.51,7.9-1.41,2.17-2.44,3.25-3.1,3.25-1.04,0-2.96-.66-5.78-1.98-2.82-1.31-5.91-3.03-9.25-5.15-3.34-2.12-6.56-4.56-9.66-7.34-3.1-2.78-5.4-5.67-6.91-8.68,0-.28.23-1.13.7-2.54.47-1.41,1.08-3.05,1.83-4.94.85-1.88,1.75-3.95,2.68-6.21.94-2.26,1.93-4.42,2.96-6.49,1.04-2.06,2.05-3.92,3.04-5.57.98-1.65,1.86-2.84,2.61-3.6,2.92,3.01,5.88,5.74,8.89,8.18,3.01,2.45,5.97,4.66,8.89,6.63,2.91,1.98,5.69,3.65,8.33,5.01,2.63,1.36,5.02,2.38,7.19,3.03v.28Z"/>
    <path class="cls-1" d="m346.53,253.35c-6.68-1.88-12.55-4.35-17.63-7.41s-9.38-6.47-12.91-10.23c-3.53-3.76-6.19-7.81-7.97-12.14-1.79-4.32-2.68-8.7-2.68-13.12,0-3.57.56-7.83,1.69-12.77,1.13-4.94,2.91-10.65,5.36-17.14,1.88-4.89,3.95-9.57,6.21-14.04,2.26-4.46,5.1-8.39,8.53-11.78,3.43-3.39,7.65-6.09,12.63-8.11,4.98-2.02,11.19-3.03,18.62-3.03,5.64,0,11.12.66,16.43,1.98,5.31,1.32,10.03,3.08,14.18,5.29,4.14,2.21,7.5,4.75,10.09,7.62,2.58,2.87,3.97,5.81,4.16,8.82.29,1.88.54,4.42.78,7.62.23,3.2.35,6.3.35,9.31,0,4.23.15,8.04.43,11.43.29,3.39.43,5.88.43,7.47,0,.75-.07,1.55-.22,2.4-.14.85-.73,1.27-1.76,1.27-.47,0-.94-.42-1.41-1.27-.47-.84-.97-1.92-1.48-3.24-.52-1.31-1.06-2.82-1.62-4.51-.66-1.6-1.41-3.2-2.26-4.8-1.04-2.26-2.84-4.51-5.43-6.77-2.59-2.26-5.93-4.3-10.02-6.14-4.09-1.83-8.89-3.34-14.39-4.51-5.5-1.17-11.63-1.76-18.41-1.76-4.33,0-8.19.4-11.57,1.2-3.39.8-6.28,1.84-8.67,3.1-2.4,1.27-4.24,2.71-5.5,4.3-1.27,1.6-1.9,3.25-1.9,4.94,0,4.33,1.64,8.63,4.94,12.91,3.29,4.28,7.71,8.14,13.26,11.57,5.55,3.43,11.99,6.23,19.33,8.39,7.34,2.17,15.05,3.25,23.14,3.25,3.39,0,7.57-.56,12.56-1.69,4.98-1.13,10.44-2.82,16.36-5.08,5.92-2.26,12.11-5.06,18.54-8.39,6.45-3.34,12.82-7.22,19.12-11.64l1.41,1.13c-2.26,4.23-4.38,8.63-6.35,13.19-1.98,4.56-3.81,8.91-5.5,13.05-1.6,3.95-4.19,7.57-7.76,10.86-3.58,3.3-7.71,6.47-12.41,9.52-4.71,3.06-9.73,6.09-15.1,9.1-5.36,3.01-10.63,6.16-15.8,9.45-4.42,2.82-9.19,6.21-14.32,10.16s-10.37,8.19-15.73,12.7c-5.36,4.51-10.68,9.12-15.94,13.82-5.27,4.71-10.18,9.25-14.74,13.61-4.57,4.38-8.66,8.42-12.28,12.14-3.63,3.71-6.47,6.79-8.53,9.24-2.73,3.29-5.36,6.16-7.9,8.6-2.54,2.45-4.96,4.59-7.27,6.42-2.3,1.83-4.54,3.36-6.7,4.58s-4.27,2.3-6.35,3.25l-1.13-2.26c.38-3.39.91-6.84,1.62-10.37.7-3.52,1.62-7.14,2.75-10.86,1.13-3.72,2.56-7.54,4.3-11.49s3.93-8,6.56-12.14c4.99-8.09,12.2-17.04,21.65-26.87,9.45-9.83,20.86-19.5,34.21-28.99v-1.13Z"/>
    <path class="cls-1" d="m194.54,442.08c-.75,2.35-1.86,5.2-3.32,8.53-1.45,3.34-2.98,6.56-4.58,9.66-1.6,3.11-3.1,5.74-4.51,7.9-1.41,2.17-2.44,3.25-3.1,3.25-1.04,0-2.96-.66-5.78-1.98-2.82-1.31-5.91-3.03-9.25-5.15-3.34-2.12-6.56-4.56-9.66-7.34-3.1-2.78-5.4-5.67-6.91-8.68,0-.28.23-1.13.7-2.54.47-1.41,1.08-3.05,1.83-4.94.85-1.88,1.75-3.95,2.68-6.21.94-2.26,1.93-4.42,2.96-6.49,1.04-2.06,2.05-3.92,3.04-5.57.98-1.65,1.86-2.84,2.61-3.6,2.92,3.01,5.88,5.74,8.89,8.18,3.01,2.45,5.97,4.66,8.89,6.63,2.91,1.98,5.69,3.65,8.33,5.01,2.63,1.36,5.02,2.38,7.19,3.03v.28Z"/>
  </g>
</svg>