<svg xmlns="http://www.w3.org/2000/svg" version="1.1" xmlns:xlink="http://www.w3.org/1999/xlink" xmlns:svgjs="http://svgjs.dev/svgjs" width="1440" height="900" preserveAspectRatio="none" viewBox="0 0 1440 900"><g mask="url(&quot;#SvgjsMask1021&quot;)" fill="none"><rect width="1440" height="900" x="0" y="0" fill="rgba(30, 39, 46, 1)"></rect><path d="M86 900L986 0L1661 0L761 900z" fill="url(&quot;#SvgjsLinearGradient1022&quot;)"></path><path d="M535.2 900L1435.2 0L1588.2 0L688.2 900z" fill="url(&quot;#SvgjsLinearGradient1022&quot;)"></path><path d="M1352 900L452 0L-104.5 0L795.5 900z" fill="url(&quot;#SvgjsLinearGradient1023&quot;)"></path><path d="M877.8 900L-22.200000000000045 0L-419.70000000000005 0L480.29999999999995 900z" fill="url(&quot;#SvgjsLinearGradient1023&quot;)"></path><path d="M722.7946397537671 900L1440 182.79463975376711L1440 900z" fill="url(&quot;#SvgjsLinearGradient1022&quot;)"></path><path d="M0 900L717.2053602462329 900L 0 182.79463975376711z" fill="url(&quot;#SvgjsLinearGradient1023&quot;)"></path></g><defs><mask id="SvgjsMask1021"><rect width="1440" height="900" fill="#ffffff"></rect></mask><linearGradient x1="0%" y1="100%" x2="100%" y2="0%" id="SvgjsLinearGradient1022"><stop stop-color="rgba(43, 56, 67, 1)" offset="0"></stop><stop stop-opacity="0" stop-color="rgba(43, 56, 67, 1)" offset="0.66"></stop></linearGradient><linearGradient x1="100%" y1="100%" x2="0%" y2="0%" id="SvgjsLinearGradient1023"><stop stop-color="rgba(43, 56, 67, 1)" offset="0"></stop><stop stop-opacity="0" stop-color="rgba(43, 56, 67, 1)" offset="0.66"></stop></linearGradient></defs></svg>