<svg xmlns="http://www.w3.org/2000/svg" version="1.1" xmlns:xlink="http://www.w3.org/1999/xlink" xmlns:svgjs="http://svgjs.dev/svgjs" width="1440" height="560" preserveAspectRatio="none" viewBox="0 0 1440 560"><g mask="url(&quot;#SvgjsMask1032&quot;)" fill="none"><rect width="1440" height="560" x="0" y="0" fill="rgba(30, 39, 46, 1)"></rect><path d="M-107.36 351.18L-107.36 351.18" stroke="rgba(30, 39, 46, 1)" stroke-width="1.5"></path><path d="M-107.36 351.18L-93.02 493.16" stroke="rgba(30, 39, 46, 1)" stroke-width="1.5"></path><path d="M-107.36 351.18L68.92 400.51" stroke="rgba(30, 39, 46, 1)" stroke-width="1.5"></path><path d="M-107.36 351.18L52.07 523.28" stroke="rgba(30, 39, 46, 1)" stroke-width="1.5"></path><path d="M-107.36 351.18L-109.66 650.3" stroke="rgba(30, 39, 46, 1)" stroke-width="1.5"></path><path d="M-107.36 351.18L202.24 365.61" stroke="rgba(30, 39, 46, 1)" stroke-width="1.5"></path><path d="M-107.36 351.18L201.9 558.06" stroke="rgba(30, 39, 46, 1)" stroke-width="1.5"></path><path d="M-93.02 493.16L-93.02 493.16" stroke="rgba(30, 39, 46, 1)" stroke-width="1.5"></path><path d="M-93.02 493.16L52.07 523.28" stroke="rgba(30, 39, 46, 1)" stroke-width="1.5"></path><path d="M-93.02 493.16L-109.66 650.3" stroke="rgba(30, 39, 46, 1)" stroke-width="1.5"></path><path d="M-93.02 493.16L68.92 400.51" stroke="rgba(30, 39, 46, 1)" stroke-width="1.5"></path><path d="M-93.02 493.16L68.52 695.81" stroke="rgba(30, 39, 46, 1)" stroke-width="1.5"></path><path d="M-93.02 493.16L201.9 558.06" stroke="rgba(30, 39, 46, 1)" stroke-width="1.5"></path><path d="M-109.66 650.3L-109.66 650.3" stroke="rgba(30, 39, 46, 1)" stroke-width="1.5"></path><path d="M-109.66 650.3L68.52 695.81" stroke="rgba(30, 39, 46, 1)" stroke-width="1.5"></path><path d="M-109.66 650.3L52.07 523.28" stroke="rgba(30, 39, 46, 1)" stroke-width="1.5"></path><path d="M-109.66 650.3L68.92 400.51" stroke="rgba(30, 39, 46, 1)" stroke-width="1.5"></path><path d="M68.92 400.51L68.92 400.51" stroke="rgba(30, 39, 46, 1)" stroke-width="1.5"></path><path d="M68.92 400.51L52.07 523.28" stroke="rgba(30, 39, 46, 1)" stroke-width="1.5"></path><path d="M68.92 400.51L202.24 365.61" stroke="rgba(30, 39, 46, 1)" stroke-width="1.5"></path><path d="M52.07 523.28L52.07 523.28" stroke="rgba(30, 39, 46, 1)" stroke-width="1.5"></path><path d="M68.52 695.81L68.52 695.81" stroke="rgba(30, 39, 46, 1)" stroke-width="1.5"></path><path d="M68.52 695.81L211.83 647.81" stroke="rgba(30, 39, 46, 1)" stroke-width="1.5"></path><path d="M68.52 695.81L52.07 523.28" stroke="rgba(30, 39, 46, 1)" stroke-width="1.5"></path><path d="M68.52 695.81L201.9 558.06" stroke="rgba(30, 39, 46, 1)" stroke-width="1.5"></path><path d="M68.52 695.81L68.92 400.51" stroke="rgba(30, 39, 46, 1)" stroke-width="1.5"></path><path d="M202.24 365.61L202.24 365.61" stroke="rgba(30, 39, 46, 1)" stroke-width="1.5"></path><path d="M202.24 365.61L201.9 558.06" stroke="rgba(30, 39, 46, 1)" stroke-width="1.5"></path><path d="M201.9 558.06L201.9 558.06" stroke="rgba(30, 39, 46, 1)" stroke-width="1.5"></path><path d="M201.9 558.06L211.83 647.81" stroke="rgba(30, 39, 46, 1)" stroke-width="1.5"></path><path d="M201.9 558.06L52.07 523.28" stroke="rgba(30, 39, 46, 1)" stroke-width="1.5"></path><path d="M201.9 558.06L403.57 561.27" stroke="rgba(30, 39, 46, 1)" stroke-width="1.5"></path><path d="M211.83 647.81L211.83 647.81" stroke="rgba(30, 39, 46, 1)" stroke-width="1.5"></path><path d="M211.83 647.81L399.63 637.71" stroke="rgba(30, 39, 46, 1)" stroke-width="1.5"></path><path d="M211.83 647.81L52.07 523.28" stroke="rgba(30, 39, 46, 1)" stroke-width="1.5"></path><path d="M211.83 647.81L403.57 561.27" stroke="rgba(30, 39, 46, 1)" stroke-width="1.5"></path><path d="M211.83 647.81L202.24 365.61" stroke="rgba(30, 39, 46, 1)" stroke-width="1.5"></path><path d="M408.07 411.67L408.07 411.67" stroke="rgba(30, 39, 46, 1)" stroke-width="1.5"></path><path d="M408.07 411.67L508.91 345.92" stroke="rgba(30, 39, 46, 1)" stroke-width="1.5"></path><path d="M408.07 411.67L403.57 561.27" stroke="rgba(30, 39, 46, 1)" stroke-width="1.5"></path><path d="M408.07 411.67L553.84 531.92" stroke="rgba(30, 39, 46, 1)" stroke-width="1.5"></path><path d="M408.07 411.67L202.24 365.61" stroke="rgba(30, 39, 46, 1)" stroke-width="1.5"></path><path d="M408.07 411.67L399.63 637.71" stroke="rgba(30, 39, 46, 1)" stroke-width="1.5"></path><path d="M403.57 561.27L403.57 561.27" stroke="rgba(30, 39, 46, 1)" stroke-width="1.5"></path><path d="M403.57 561.27L399.63 637.71" stroke="rgba(30, 39, 46, 1)" stroke-width="1.5"></path><path d="M403.57 561.27L507.12 662.92" stroke="rgba(30, 39, 46, 1)" stroke-width="1.5"></path><path d="M399.63 637.71L399.63 637.71" stroke="rgba(30, 39, 46, 1)" stroke-width="1.5"></path><path d="M399.63 637.71L507.12 662.92" stroke="rgba(30, 39, 46, 1)" stroke-width="1.5"></path><path d="M399.63 637.71L553.84 531.92" stroke="rgba(30, 39, 46, 1)" stroke-width="1.5"></path><path d="M399.63 637.71L201.9 558.06" stroke="rgba(30, 39, 46, 1)" stroke-width="1.5"></path><path d="M508.91 345.92L508.91 345.92" stroke="rgba(30, 39, 46, 1)" stroke-width="1.5"></path><path d="M508.91 345.92L666.23 373.31" stroke="rgba(30, 39, 46, 1)" stroke-width="1.5"></path><path d="M508.91 345.92L553.84 531.92" stroke="rgba(30, 39, 46, 1)" stroke-width="1.5"></path><path d="M553.84 531.92L553.84 531.92" stroke="rgba(30, 39, 46, 1)" stroke-width="1.5"></path><path d="M553.84 531.92L669.76 552.13" stroke="rgba(30, 39, 46, 1)" stroke-width="1.5"></path><path d="M553.84 531.92L507.12 662.92" stroke="rgba(30, 39, 46, 1)" stroke-width="1.5"></path><path d="M553.84 531.92L403.57 561.27" stroke="rgba(30, 39, 46, 1)" stroke-width="1.5"></path><path d="M507.12 662.92L507.12 662.92" stroke="rgba(30, 39, 46, 1)" stroke-width="1.5"></path><path d="M678.68 215.87L678.68 215.87" stroke="rgba(30, 39, 46, 1)" stroke-width="1.5"></path><path d="M678.68 215.87L791.44 244.4" stroke="rgba(30, 39, 46, 1)" stroke-width="1.5"></path><path d="M678.68 215.87L666.23 373.31" stroke="rgba(30, 39, 46, 1)" stroke-width="1.5"></path><path d="M678.68 215.87L508.91 345.92" stroke="rgba(30, 39, 46, 1)" stroke-width="1.5"></path><path d="M678.68 215.87L802.71 394.06" stroke="rgba(30, 39, 46, 1)" stroke-width="1.5"></path><path d="M678.68 215.87L859.16 50.97" stroke="rgba(30, 39, 46, 1)" stroke-width="1.5"></path><path d="M666.23 373.31L666.23 373.31" stroke="rgba(30, 39, 46, 1)" stroke-width="1.5"></path><path d="M666.23 373.31L802.71 394.06" stroke="rgba(30, 39, 46, 1)" stroke-width="1.5"></path><path d="M666.23 373.31L669.76 552.13" stroke="rgba(30, 39, 46, 1)" stroke-width="1.5"></path><path d="M666.23 373.31L791.44 244.4" stroke="rgba(30, 39, 46, 1)" stroke-width="1.5"></path><path d="M669.76 552.13L669.76 552.13" stroke="rgba(30, 39, 46, 1)" stroke-width="1.5"></path><path d="M655.39 702.76L655.39 702.76" stroke="rgba(30, 39, 46, 1)" stroke-width="1.5"></path><path d="M655.39 702.76L803.44 711.97" stroke="rgba(30, 39, 46, 1)" stroke-width="1.5"></path><path d="M655.39 702.76L669.76 552.13" stroke="rgba(30, 39, 46, 1)" stroke-width="1.5"></path><path d="M655.39 702.76L507.12 662.92" stroke="rgba(30, 39, 46, 1)" stroke-width="1.5"></path><path d="M655.39 702.76L553.84 531.92" stroke="rgba(30, 39, 46, 1)" stroke-width="1.5"></path><path d="M655.39 702.76L399.63 637.71" stroke="rgba(30, 39, 46, 1)" stroke-width="1.5"></path><path d="M859.16 50.97L859.16 50.97" stroke="rgba(30, 39, 46, 1)" stroke-width="1.5"></path><path d="M859.16 50.97L949.46 -43.04" stroke="rgba(30, 39, 46, 1)" stroke-width="1.5"></path><path d="M859.16 50.97L952.23 218.99" stroke="rgba(30, 39, 46, 1)" stroke-width="1.5"></path><path d="M859.16 50.97L791.44 244.4" stroke="rgba(30, 39, 46, 1)" stroke-width="1.5"></path><path d="M859.16 50.97L1090.97 45.96" stroke="rgba(30, 39, 46, 1)" stroke-width="1.5"></path><path d="M791.44 244.4L791.44 244.4" stroke="rgba(30, 39, 46, 1)" stroke-width="1.5"></path><path d="M791.44 244.4L802.71 394.06" stroke="rgba(30, 39, 46, 1)" stroke-width="1.5"></path><path d="M802.71 394.06L802.71 394.06" stroke="rgba(30, 39, 46, 1)" stroke-width="1.5"></path><path d="M802.71 394.06L860.55 493.39" stroke="rgba(30, 39, 46, 1)" stroke-width="1.5"></path><path d="M802.71 394.06L978.1 339.65" stroke="rgba(30, 39, 46, 1)" stroke-width="1.5"></path><path d="M802.71 394.06L669.76 552.13" stroke="rgba(30, 39, 46, 1)" stroke-width="1.5"></path><path d="M860.55 493.39L860.55 493.39" stroke="rgba(30, 39, 46, 1)" stroke-width="1.5"></path><path d="M860.55 493.39L986.01 549.39" stroke="rgba(30, 39, 46, 1)" stroke-width="1.5"></path><path d="M860.55 493.39L961.84 656.19" stroke="rgba(30, 39, 46, 1)" stroke-width="1.5"></path><path d="M860.55 493.39L978.1 339.65" stroke="rgba(30, 39, 46, 1)" stroke-width="1.5"></path><path d="M860.55 493.39L669.76 552.13" stroke="rgba(30, 39, 46, 1)" stroke-width="1.5"></path><path d="M803.44 711.97L803.44 711.97" stroke="rgba(30, 39, 46, 1)" stroke-width="1.5"></path><path d="M803.44 711.97L961.84 656.19" stroke="rgba(30, 39, 46, 1)" stroke-width="1.5"></path><path d="M803.44 711.97L669.76 552.13" stroke="rgba(30, 39, 46, 1)" stroke-width="1.5"></path><path d="M803.44 711.97L860.55 493.39" stroke="rgba(30, 39, 46, 1)" stroke-width="1.5"></path><path d="M949.46 -43.04L949.46 -43.04" stroke="rgba(30, 39, 46, 1)" stroke-width="1.5"></path><path d="M949.46 -43.04L1090.97 45.96" stroke="rgba(30, 39, 46, 1)" stroke-width="1.5"></path><path d="M949.46 -43.04L1124.59 -44.07" stroke="rgba(30, 39, 46, 1)" stroke-width="1.5"></path><path d="M949.46 -43.04L952.23 218.99" stroke="rgba(30, 39, 46, 1)" stroke-width="1.5"></path><path d="M949.46 -43.04L1123.24 225.23" stroke="rgba(30, 39, 46, 1)" stroke-width="1.5"></path><path d="M949.46 -43.04L791.44 244.4" stroke="rgba(30, 39, 46, 1)" stroke-width="1.5"></path><path d="M952.23 218.99L952.23 218.99" stroke="rgba(30, 39, 46, 1)" stroke-width="1.5"></path><path d="M952.23 218.99L978.1 339.65" stroke="rgba(30, 39, 46, 1)" stroke-width="1.5"></path><path d="M952.23 218.99L791.44 244.4" stroke="rgba(30, 39, 46, 1)" stroke-width="1.5"></path><path d="M952.23 218.99L1123.24 225.23" stroke="rgba(30, 39, 46, 1)" stroke-width="1.5"></path><path d="M952.23 218.99L1090.97 45.96" stroke="rgba(30, 39, 46, 1)" stroke-width="1.5"></path><path d="M978.1 339.65L978.1 339.65" stroke="rgba(30, 39, 46, 1)" stroke-width="1.5"></path><path d="M978.1 339.65L1138.35 359.96" stroke="rgba(30, 39, 46, 1)" stroke-width="1.5"></path><path d="M986.01 549.39L986.01 549.39" stroke="rgba(30, 39, 46, 1)" stroke-width="1.5"></path><path d="M986.01 549.39L961.84 656.19" stroke="rgba(30, 39, 46, 1)" stroke-width="1.5"></path><path d="M986.01 549.39L1132.94 487.79" stroke="rgba(30, 39, 46, 1)" stroke-width="1.5"></path><path d="M986.01 549.39L978.1 339.65" stroke="rgba(30, 39, 46, 1)" stroke-width="1.5"></path><path d="M961.84 656.19L961.84 656.19" stroke="rgba(30, 39, 46, 1)" stroke-width="1.5"></path><path d="M1124.59 -44.07L1124.59 -44.07" stroke="rgba(30, 39, 46, 1)" stroke-width="1.5"></path><path d="M1124.59 -44.07L1090.97 45.96" stroke="rgba(30, 39, 46, 1)" stroke-width="1.5"></path><path d="M1124.59 -44.07L1294.53 70.65" stroke="rgba(30, 39, 46, 1)" stroke-width="1.5"></path><path d="M1124.59 -44.07L1123.24 225.23" stroke="rgba(30, 39, 46, 1)" stroke-width="1.5"></path><path d="M1124.59 -44.07L859.16 50.97" stroke="rgba(30, 39, 46, 1)" stroke-width="1.5"></path><path d="M1090.97 45.96L1090.97 45.96" stroke="rgba(30, 39, 46, 1)" stroke-width="1.5"></path><path d="M1090.97 45.96L1123.24 225.23" stroke="rgba(30, 39, 46, 1)" stroke-width="1.5"></path><path d="M1090.97 45.96L1294.53 70.65" stroke="rgba(30, 39, 46, 1)" stroke-width="1.5"></path><path d="M1123.24 225.23L1123.24 225.23" stroke="rgba(30, 39, 46, 1)" stroke-width="1.5"></path><path d="M1123.24 225.23L1138.35 359.96" stroke="rgba(30, 39, 46, 1)" stroke-width="1.5"></path><path d="M1123.24 225.23L978.1 339.65" stroke="rgba(30, 39, 46, 1)" stroke-width="1.5"></path><path d="M1123.24 225.23L1274.2 376.58" stroke="rgba(30, 39, 46, 1)" stroke-width="1.5"></path><path d="M1123.24 225.23L1294.53 70.65" stroke="rgba(30, 39, 46, 1)" stroke-width="1.5"></path><path d="M1138.35 359.96L1138.35 359.96" stroke="rgba(30, 39, 46, 1)" stroke-width="1.5"></path><path d="M1138.35 359.96L1132.94 487.79" stroke="rgba(30, 39, 46, 1)" stroke-width="1.5"></path><path d="M1138.35 359.96L1274.2 376.58" stroke="rgba(30, 39, 46, 1)" stroke-width="1.5"></path><path d="M1132.94 487.79L1132.94 487.79" stroke="rgba(30, 39, 46, 1)" stroke-width="1.5"></path><path d="M1132.94 487.79L1267.66 491.82" stroke="rgba(30, 39, 46, 1)" stroke-width="1.5"></path><path d="M1132.94 487.79L1274.2 376.58" stroke="rgba(30, 39, 46, 1)" stroke-width="1.5"></path><path d="M1294.53 70.65L1294.53 70.65" stroke="rgba(30, 39, 46, 1)" stroke-width="1.5"></path><path d="M1294.53 70.65L1460.08 103.21" stroke="rgba(30, 39, 46, 1)" stroke-width="1.5"></path><path d="M1294.53 70.65L1451.17 -83.26" stroke="rgba(30, 39, 46, 1)" stroke-width="1.5"></path><path d="M1294.53 70.65L1553.15 93.59" stroke="rgba(30, 39, 46, 1)" stroke-width="1.5"></path><path d="M1274.2 376.58L1274.2 376.58" stroke="rgba(30, 39, 46, 1)" stroke-width="1.5"></path><path d="M1274.2 376.58L1267.66 491.82" stroke="rgba(30, 39, 46, 1)" stroke-width="1.5"></path><path d="M1274.2 376.58L1399.04 344.86" stroke="rgba(30, 39, 46, 1)" stroke-width="1.5"></path><path d="M1267.66 491.82L1267.66 491.82" stroke="rgba(30, 39, 46, 1)" stroke-width="1.5"></path><path d="M1267.66 491.82L1400.53 531.5" stroke="rgba(30, 39, 46, 1)" stroke-width="1.5"></path><path d="M1267.66 491.82L1138.35 359.96" stroke="rgba(30, 39, 46, 1)" stroke-width="1.5"></path><path d="M1451.17 -83.26L1451.17 -83.26" stroke="rgba(30, 39, 46, 1)" stroke-width="1.5"></path><path d="M1451.17 -83.26L1602.28 -48.24" stroke="rgba(30, 39, 46, 1)" stroke-width="1.5"></path><path d="M1451.17 -83.26L1460.08 103.21" stroke="rgba(30, 39, 46, 1)" stroke-width="1.5"></path><path d="M1451.17 -83.26L1553.15 93.59" stroke="rgba(30, 39, 46, 1)" stroke-width="1.5"></path><path d="M1451.17 -83.26L1124.59 -44.07" stroke="rgba(30, 39, 46, 1)" stroke-width="1.5"></path><path d="M1451.17 -83.26L1566.62 243.18" stroke="rgba(30, 39, 46, 1)" stroke-width="1.5"></path><path d="M1460.08 103.21L1460.08 103.21" stroke="rgba(30, 39, 46, 1)" stroke-width="1.5"></path><path d="M1460.08 103.21L1553.15 93.59" stroke="rgba(30, 39, 46, 1)" stroke-width="1.5"></path><path d="M1460.08 103.21L1566.62 243.18" stroke="rgba(30, 39, 46, 1)" stroke-width="1.5"></path><path d="M1399.04 344.86L1399.04 344.86" stroke="rgba(30, 39, 46, 1)" stroke-width="1.5"></path><path d="M1399.04 344.86L1560.65 405.66" stroke="rgba(30, 39, 46, 1)" stroke-width="1.5"></path><path d="M1400.53 531.5L1400.53 531.5" stroke="rgba(30, 39, 46, 1)" stroke-width="1.5"></path><path d="M1400.53 531.5L1546.84 493.03" stroke="rgba(30, 39, 46, 1)" stroke-width="1.5"></path><path d="M1428.29 696.53L1428.29 696.53" stroke="rgba(30, 39, 46, 1)" stroke-width="1.5"></path><path d="M1428.29 696.53L1577.75 657.62" stroke="rgba(30, 39, 46, 1)" stroke-width="1.5"></path><path d="M1428.29 696.53L1400.53 531.5" stroke="rgba(30, 39, 46, 1)" stroke-width="1.5"></path><path d="M1428.29 696.53L1546.84 493.03" stroke="rgba(30, 39, 46, 1)" stroke-width="1.5"></path><path d="M1428.29 696.53L1267.66 491.82" stroke="rgba(30, 39, 46, 1)" stroke-width="1.5"></path><path d="M1428.29 696.53L1560.65 405.66" stroke="rgba(30, 39, 46, 1)" stroke-width="1.5"></path><path d="M1602.28 -48.24L1602.28 -48.24" stroke="rgba(30, 39, 46, 1)" stroke-width="1.5"></path><path d="M1602.28 -48.24L1553.15 93.59" stroke="rgba(30, 39, 46, 1)" stroke-width="1.5"></path><path d="M1602.28 -48.24L1460.08 103.21" stroke="rgba(30, 39, 46, 1)" stroke-width="1.5"></path><path d="M1602.28 -48.24L1566.62 243.18" stroke="rgba(30, 39, 46, 1)" stroke-width="1.5"></path><path d="M1602.28 -48.24L1294.53 70.65" stroke="rgba(30, 39, 46, 1)" stroke-width="1.5"></path><path d="M1602.28 -48.24L1399.04 344.86" stroke="rgba(30, 39, 46, 1)" stroke-width="1.5"></path><path d="M1553.15 93.59L1553.15 93.59" stroke="rgba(30, 39, 46, 1)" stroke-width="1.5"></path><path d="M1553.15 93.59L1566.62 243.18" stroke="rgba(30, 39, 46, 1)" stroke-width="1.5"></path><path d="M1553.15 93.59L1399.04 344.86" stroke="rgba(30, 39, 46, 1)" stroke-width="1.5"></path><path d="M1566.62 243.18L1566.62 243.18" stroke="rgba(30, 39, 46, 1)" stroke-width="1.5"></path><path d="M1566.62 243.18L1560.65 405.66" stroke="rgba(30, 39, 46, 1)" stroke-width="1.5"></path><path d="M1566.62 243.18L1399.04 344.86" stroke="rgba(30, 39, 46, 1)" stroke-width="1.5"></path><path d="M1566.62 243.18L1546.84 493.03" stroke="rgba(30, 39, 46, 1)" stroke-width="1.5"></path><path d="M1560.65 405.66L1560.65 405.66" stroke="rgba(30, 39, 46, 1)" stroke-width="1.5"></path><path d="M1560.65 405.66L1546.84 493.03" stroke="rgba(30, 39, 46, 1)" stroke-width="1.5"></path><path d="M1560.65 405.66L1400.53 531.5" stroke="rgba(30, 39, 46, 1)" stroke-width="1.5"></path><path d="M1546.84 493.03L1546.84 493.03" stroke="rgba(30, 39, 46, 1)" stroke-width="1.5"></path><path d="M1577.75 657.62L1577.75 657.62" stroke="rgba(30, 39, 46, 1)" stroke-width="1.5"></path><path d="M1577.75 657.62L1546.84 493.03" stroke="rgba(30, 39, 46, 1)" stroke-width="1.5"></path><circle r="5" cx="-107.36" cy="351.18" fill="rgba(30, 39, 46, 1)"></circle><circle r="5" cx="-93.02" cy="493.16" fill="rgba(30, 39, 46, 1)"></circle><circle r="5" cx="-109.66" cy="650.3" fill="rgba(30, 39, 46, 1)"></circle><circle r="5" cx="68.92" cy="400.51" fill="rgba(30, 39, 46, 1)"></circle><circle r="5" cx="52.07" cy="523.28" fill="rgba(30, 39, 46, 1)"></circle><circle r="5" cx="68.52" cy="695.81" fill="rgba(30, 39, 46, 1)"></circle><circle r="5" cx="202.24" cy="365.61" fill="rgba(30, 39, 46, 1)"></circle><circle r="5" cx="201.9" cy="558.06" fill="rgba(30, 39, 46, 1)"></circle><circle r="5" cx="211.83" cy="647.81" fill="rgba(30, 39, 46, 1)"></circle><circle r="5" cx="408.07" cy="411.67" fill="rgba(30, 39, 46, 1)"></circle><circle r="5" cx="403.57" cy="561.27" fill="rgba(30, 39, 46, 1)"></circle><circle r="5" cx="399.63" cy="637.71" fill="rgba(30, 39, 46, 1)"></circle><circle r="5" cx="508.91" cy="345.92" fill="rgba(30, 39, 46, 1)"></circle><circle r="5" cx="553.84" cy="531.92" fill="rgba(30, 39, 46, 1)"></circle><circle r="5" cx="507.12" cy="662.92" fill="rgba(30, 39, 46, 1)"></circle><circle r="5" cx="678.68" cy="215.87" fill="rgba(30, 39, 46, 1)"></circle><circle r="5" cx="666.23" cy="373.31" fill="rgba(30, 39, 46, 1)"></circle><circle r="5" cx="669.76" cy="552.13" fill="rgba(30, 39, 46, 1)"></circle><circle r="5" cx="655.39" cy="702.76" fill="rgba(30, 39, 46, 1)"></circle><circle r="5" cx="859.16" cy="50.97" fill="rgba(30, 39, 46, 1)"></circle><circle r="5" cx="791.44" cy="244.4" fill="rgba(30, 39, 46, 1)"></circle><circle r="5" cx="802.71" cy="394.06" fill="rgba(30, 39, 46, 1)"></circle><circle r="5" cx="860.55" cy="493.39" fill="rgba(30, 39, 46, 1)"></circle><circle r="5" cx="803.44" cy="711.97" fill="rgba(30, 39, 46, 1)"></circle><circle r="5" cx="949.46" cy="-43.04" fill="rgba(30, 39, 46, 1)"></circle><circle r="5" cx="952.23" cy="218.99" fill="rgba(30, 39, 46, 1)"></circle><circle r="5" cx="978.1" cy="339.65" fill="rgba(30, 39, 46, 1)"></circle><circle r="5" cx="986.01" cy="549.39" fill="rgba(30, 39, 46, 1)"></circle><circle r="5" cx="961.84" cy="656.19" fill="rgba(30, 39, 46, 1)"></circle><circle r="5" cx="1124.59" cy="-44.07" fill="rgba(30, 39, 46, 1)"></circle><circle r="5" cx="1090.97" cy="45.96" fill="rgba(30, 39, 46, 1)"></circle><circle r="5" cx="1123.24" cy="225.23" fill="rgba(30, 39, 46, 1)"></circle><circle r="5" cx="1138.35" cy="359.96" fill="rgba(30, 39, 46, 1)"></circle><circle r="5" cx="1132.94" cy="487.79" fill="rgba(30, 39, 46, 1)"></circle><circle r="5" cx="1294.53" cy="70.65" fill="rgba(30, 39, 46, 1)"></circle><circle r="5" cx="1274.2" cy="376.58" fill="rgba(30, 39, 46, 1)"></circle><circle r="5" cx="1267.66" cy="491.82" fill="rgba(30, 39, 46, 1)"></circle><circle r="5" cx="1451.17" cy="-83.26" fill="rgba(30, 39, 46, 1)"></circle><circle r="5" cx="1460.08" cy="103.21" fill="rgba(30, 39, 46, 1)"></circle><circle r="5" cx="1399.04" cy="344.86" fill="rgba(30, 39, 46, 1)"></circle><circle r="5" cx="1400.53" cy="531.5" fill="rgba(30, 39, 46, 1)"></circle><circle r="5" cx="1428.29" cy="696.53" fill="rgba(30, 39, 46, 1)"></circle><circle r="5" cx="1602.28" cy="-48.24" fill="rgba(30, 39, 46, 1)"></circle><circle r="5" cx="1553.15" cy="93.59" fill="rgba(30, 39, 46, 1)"></circle><circle r="5" cx="1566.62" cy="243.18" fill="rgba(30, 39, 46, 1)"></circle><circle r="5" cx="1560.65" cy="405.66" fill="rgba(30, 39, 46, 1)"></circle><circle r="5" cx="1546.84" cy="493.03" fill="rgba(30, 39, 46, 1)"></circle><circle r="5" cx="1577.75" cy="657.62" fill="rgba(30, 39, 46, 1)"></circle><path d="M110.29 496.58L110.29 496.58" stroke="hsl(0, 0%, 41.3%)" stroke-width="1.5"></path><path d="M110.29 496.58L-81.54 553.19" stroke="hsl(0, 0%, 41.3%)" stroke-width="1.5"></path><path d="M110.29 496.58L221.76 692.51" stroke="hsl(0, 0%, 41.3%)" stroke-width="1.5"></path><path d="M110.29 496.58L365.75 507.2" stroke="hsl(0, 0%, 41.3%)" stroke-width="1.5"></path><path d="M110.29 496.58L-66.92 709.14" stroke="hsl(0, 0%, 41.3%)" stroke-width="1.5"></path><path d="M365.75 507.2L365.75 507.2" stroke="hsl(0, 0%, 41.3%)" stroke-width="1.5"></path><path d="M365.75 507.2L512.5 488.13" stroke="hsl(0, 0%, 41.3%)" stroke-width="1.5"></path><path d="M365.75 507.2L501.23 408.26" stroke="hsl(0, 0%, 41.3%)" stroke-width="1.5"></path><path d="M365.75 507.2L390.24 683.9" stroke="hsl(0, 0%, 41.3%)" stroke-width="1.5"></path><path d="M993.75 688.91L993.75 688.91" stroke="hsl(0, 0%, 41.3%)" stroke-width="1.5"></path><path d="M993.75 688.91L1105.29 688.86" stroke="hsl(0, 0%, 41.3%)" stroke-width="1.5"></path><path d="M993.75 688.91L857.41 650.54" stroke="hsl(0, 0%, 41.3%)" stroke-width="1.5"></path><path d="M1150.54 405.36L1150.54 405.36" stroke="hsl(0, 0%, 41.3%)" stroke-width="1.5"></path><path d="M1150.54 405.36L1243.03 372.72" stroke="hsl(0, 0%, 41.3%)" stroke-width="1.5"></path><path d="M1150.54 405.36L1107.38 541.09" stroke="hsl(0, 0%, 41.3%)" stroke-width="1.5"></path><path d="M1150.54 405.36L998.35 491.65" stroke="hsl(0, 0%, 41.3%)" stroke-width="1.5"></path><path d="M1150.54 405.36L971.13 399.92" stroke="hsl(0, 0%, 41.3%)" stroke-width="1.5"></path><path d="M1150.54 405.36L1286.67 533.43" stroke="hsl(0, 0%, 41.3%)" stroke-width="1.5"></path><path d="M1286.67 533.43L1286.67 533.43" stroke="hsl(0, 0%, 41.3%)" stroke-width="1.5"></path><path d="M1286.67 533.43L1239.01 663.74" stroke="hsl(0, 0%, 41.3%)" stroke-width="1.5"></path><path d="M1286.67 533.43L1243.03 372.72" stroke="hsl(0, 0%, 41.3%)" stroke-width="1.5"></path><path d="M1286.67 533.43L1107.38 541.09" stroke="hsl(0, 0%, 41.3%)" stroke-width="1.5"></path><path d="M-81.54 553.19L-81.54 553.19" stroke="hsl(0, 0%, 41.3%)" stroke-width="1.5"></path><path d="M-81.54 553.19L-66.92 709.14" stroke="hsl(0, 0%, 41.3%)" stroke-width="1.5"></path><path d="M-81.54 553.19L221.76 692.51" stroke="hsl(0, 0%, 41.3%)" stroke-width="1.5"></path><path d="M-81.54 553.19L365.75 507.2" stroke="hsl(0, 0%, 41.3%)" stroke-width="1.5"></path><path d="M-81.54 553.19L390.24 683.9" stroke="hsl(0, 0%, 41.3%)" stroke-width="1.5"></path><path d="M-66.92 709.14L-66.92 709.14" stroke="hsl(0, 0%, 41.3%)" stroke-width="1.5"></path><path d="M-66.92 709.14L221.76 692.51" stroke="hsl(0, 0%, 41.3%)" stroke-width="1.5"></path><path d="M-66.92 709.14L390.24 683.9" stroke="hsl(0, 0%, 41.3%)" stroke-width="1.5"></path><path d="M221.76 692.51L221.76 692.51" stroke="hsl(0, 0%, 41.3%)" stroke-width="1.5"></path><path d="M221.76 692.51L390.24 683.9" stroke="hsl(0, 0%, 41.3%)" stroke-width="1.5"></path><path d="M221.76 692.51L365.75 507.2" stroke="hsl(0, 0%, 41.3%)" stroke-width="1.5"></path><path d="M221.76 692.51L503.3 677.47" stroke="hsl(0, 0%, 41.3%)" stroke-width="1.5"></path><path d="M390.24 683.9L390.24 683.9" stroke="hsl(0, 0%, 41.3%)" stroke-width="1.5"></path><path d="M390.24 683.9L503.3 677.47" stroke="hsl(0, 0%, 41.3%)" stroke-width="1.5"></path><path d="M501.23 408.26L501.23 408.26" stroke="hsl(0, 0%, 41.3%)" stroke-width="1.5"></path><path d="M501.23 408.26L512.5 488.13" stroke="hsl(0, 0%, 41.3%)" stroke-width="1.5"></path><path d="M501.23 408.26L694.8 376.58" stroke="hsl(0, 0%, 41.3%)" stroke-width="1.5"></path><path d="M501.23 408.26L705.65 519.18" stroke="hsl(0, 0%, 41.3%)" stroke-width="1.5"></path><path d="M501.23 408.26L503.3 677.47" stroke="hsl(0, 0%, 41.3%)" stroke-width="1.5"></path><path d="M512.5 488.13L512.5 488.13" stroke="hsl(0, 0%, 41.3%)" stroke-width="1.5"></path><path d="M512.5 488.13L503.3 677.47" stroke="hsl(0, 0%, 41.3%)" stroke-width="1.5"></path><path d="M512.5 488.13L705.65 519.18" stroke="hsl(0, 0%, 41.3%)" stroke-width="1.5"></path><path d="M512.5 488.13L694.8 376.58" stroke="hsl(0, 0%, 41.3%)" stroke-width="1.5"></path><path d="M512.5 488.13L390.24 683.9" stroke="hsl(0, 0%, 41.3%)" stroke-width="1.5"></path><path d="M503.3 677.47L503.3 677.47" stroke="hsl(0, 0%, 41.3%)" stroke-width="1.5"></path><path d="M503.3 677.47L685.07 666.74" stroke="hsl(0, 0%, 41.3%)" stroke-width="1.5"></path><path d="M503.3 677.47L365.75 507.2" stroke="hsl(0, 0%, 41.3%)" stroke-width="1.5"></path><path d="M694.8 376.58L694.8 376.58" stroke="hsl(0, 0%, 41.3%)" stroke-width="1.5"></path><path d="M694.8 376.58L825.6 337.85" stroke="hsl(0, 0%, 41.3%)" stroke-width="1.5"></path><path d="M694.8 376.58L705.65 519.18" stroke="hsl(0, 0%, 41.3%)" stroke-width="1.5"></path><path d="M694.8 376.58L818.27 554.96" stroke="hsl(0, 0%, 41.3%)" stroke-width="1.5"></path><path d="M694.8 376.58L971.13 399.92" stroke="hsl(0, 0%, 41.3%)" stroke-width="1.5"></path><path d="M705.65 519.18L705.65 519.18" stroke="hsl(0, 0%, 41.3%)" stroke-width="1.5"></path><path d="M705.65 519.18L818.27 554.96" stroke="hsl(0, 0%, 41.3%)" stroke-width="1.5"></path><path d="M705.65 519.18L685.07 666.74" stroke="hsl(0, 0%, 41.3%)" stroke-width="1.5"></path><path d="M705.65 519.18L857.41 650.54" stroke="hsl(0, 0%, 41.3%)" stroke-width="1.5"></path><path d="M705.65 519.18L825.6 337.85" stroke="hsl(0, 0%, 41.3%)" stroke-width="1.5"></path><path d="M685.07 666.74L685.07 666.74" stroke="hsl(0, 0%, 41.3%)" stroke-width="1.5"></path><path d="M685.07 666.74L857.41 650.54" stroke="hsl(0, 0%, 41.3%)" stroke-width="1.5"></path><path d="M685.07 666.74L818.27 554.96" stroke="hsl(0, 0%, 41.3%)" stroke-width="1.5"></path><path d="M685.07 666.74L512.5 488.13" stroke="hsl(0, 0%, 41.3%)" stroke-width="1.5"></path><path d="M685.07 666.74L694.8 376.58" stroke="hsl(0, 0%, 41.3%)" stroke-width="1.5"></path><path d="M825.6 337.85L825.6 337.85" stroke="hsl(0, 0%, 41.3%)" stroke-width="1.5"></path><path d="M825.6 337.85L971.13 399.92" stroke="hsl(0, 0%, 41.3%)" stroke-width="1.5"></path><path d="M825.6 337.85L818.27 554.96" stroke="hsl(0, 0%, 41.3%)" stroke-width="1.5"></path><path d="M825.6 337.85L998.35 491.65" stroke="hsl(0, 0%, 41.3%)" stroke-width="1.5"></path><path d="M818.27 554.96L818.27 554.96" stroke="hsl(0, 0%, 41.3%)" stroke-width="1.5"></path><path d="M818.27 554.96L857.41 650.54" stroke="hsl(0, 0%, 41.3%)" stroke-width="1.5"></path><path d="M857.41 650.54L857.41 650.54" stroke="hsl(0, 0%, 41.3%)" stroke-width="1.5"></path><path d="M971.13 399.92L971.13 399.92" stroke="hsl(0, 0%, 41.3%)" stroke-width="1.5"></path><path d="M971.13 399.92L998.35 491.65" stroke="hsl(0, 0%, 41.3%)" stroke-width="1.5"></path><path d="M998.35 491.65L998.35 491.65" stroke="hsl(0, 0%, 41.3%)" stroke-width="1.5"></path><path d="M998.35 491.65L1107.38 541.09" stroke="hsl(0, 0%, 41.3%)" stroke-width="1.5"></path><path d="M998.35 491.65L818.27 554.96" stroke="hsl(0, 0%, 41.3%)" stroke-width="1.5"></path><path d="M998.35 491.65L993.75 688.91" stroke="hsl(0, 0%, 41.3%)" stroke-width="1.5"></path><path d="M1097.36 191.61L1097.36 191.61" stroke="hsl(0, 0%, 41.3%)" stroke-width="1.5"></path><path d="M1097.36 191.61L1297.84 245.11" stroke="hsl(0, 0%, 41.3%)" stroke-width="1.5"></path><path d="M1097.36 191.61L1150.54 405.36" stroke="hsl(0, 0%, 41.3%)" stroke-width="1.5"></path><path d="M1097.36 191.61L1304.89 103.98" stroke="hsl(0, 0%, 41.3%)" stroke-width="1.5"></path><path d="M1097.36 191.61L1243.03 372.72" stroke="hsl(0, 0%, 41.3%)" stroke-width="1.5"></path><path d="M1107.38 541.09L1107.38 541.09" stroke="hsl(0, 0%, 41.3%)" stroke-width="1.5"></path><path d="M1107.38 541.09L1105.29 688.86" stroke="hsl(0, 0%, 41.3%)" stroke-width="1.5"></path><path d="M1105.29 688.86L1105.29 688.86" stroke="hsl(0, 0%, 41.3%)" stroke-width="1.5"></path><path d="M1105.29 688.86L1239.01 663.74" stroke="hsl(0, 0%, 41.3%)" stroke-width="1.5"></path><path d="M1105.29 688.86L998.35 491.65" stroke="hsl(0, 0%, 41.3%)" stroke-width="1.5"></path><path d="M1105.29 688.86L1286.67 533.43" stroke="hsl(0, 0%, 41.3%)" stroke-width="1.5"></path><path d="M1268.56 -73.67L1268.56 -73.67" stroke="hsl(0, 0%, 41.3%)" stroke-width="1.5"></path><path d="M1268.56 -73.67L1431.08 -63.31" stroke="hsl(0, 0%, 41.3%)" stroke-width="1.5"></path><path d="M1268.56 -73.67L1304.89 103.98" stroke="hsl(0, 0%, 41.3%)" stroke-width="1.5"></path><path d="M1268.56 -73.67L1427.83 56.5" stroke="hsl(0, 0%, 41.3%)" stroke-width="1.5"></path><path d="M1268.56 -73.67L1544.29 -40.91" stroke="hsl(0, 0%, 41.3%)" stroke-width="1.5"></path><path d="M1268.56 -73.67L1097.36 191.61" stroke="hsl(0, 0%, 41.3%)" stroke-width="1.5"></path><path d="M1268.56 -73.67L1297.84 245.11" stroke="hsl(0, 0%, 41.3%)" stroke-width="1.5"></path><path d="M1304.89 103.98L1304.89 103.98" stroke="hsl(0, 0%, 41.3%)" stroke-width="1.5"></path><path d="M1304.89 103.98L1427.83 56.5" stroke="hsl(0, 0%, 41.3%)" stroke-width="1.5"></path><path d="M1304.89 103.98L1297.84 245.11" stroke="hsl(0, 0%, 41.3%)" stroke-width="1.5"></path><path d="M1304.89 103.98L1416.62 210.25" stroke="hsl(0, 0%, 41.3%)" stroke-width="1.5"></path><path d="M1304.89 103.98L1431.08 -63.31" stroke="hsl(0, 0%, 41.3%)" stroke-width="1.5"></path><path d="M1297.84 245.11L1297.84 245.11" stroke="hsl(0, 0%, 41.3%)" stroke-width="1.5"></path><path d="M1297.84 245.11L1416.62 210.25" stroke="hsl(0, 0%, 41.3%)" stroke-width="1.5"></path><path d="M1297.84 245.11L1243.03 372.72" stroke="hsl(0, 0%, 41.3%)" stroke-width="1.5"></path><path d="M1243.03 372.72L1243.03 372.72" stroke="hsl(0, 0%, 41.3%)" stroke-width="1.5"></path><path d="M1243.03 372.72L1425.69 411.14" stroke="hsl(0, 0%, 41.3%)" stroke-width="1.5"></path><path d="M1243.03 372.72L1107.38 541.09" stroke="hsl(0, 0%, 41.3%)" stroke-width="1.5"></path><path d="M1239.01 663.74L1239.01 663.74" stroke="hsl(0, 0%, 41.3%)" stroke-width="1.5"></path><path d="M1239.01 663.74L1107.38 541.09" stroke="hsl(0, 0%, 41.3%)" stroke-width="1.5"></path><path d="M1431.08 -63.31L1431.08 -63.31" stroke="hsl(0, 0%, 41.3%)" stroke-width="1.5"></path><path d="M1431.08 -63.31L1544.29 -40.91" stroke="hsl(0, 0%, 41.3%)" stroke-width="1.5"></path><path d="M1431.08 -63.31L1427.83 56.5" stroke="hsl(0, 0%, 41.3%)" stroke-width="1.5"></path><path d="M1431.08 -63.31L1557.2 75.02" stroke="hsl(0, 0%, 41.3%)" stroke-width="1.5"></path><path d="M1427.83 56.5L1427.83 56.5" stroke="hsl(0, 0%, 41.3%)" stroke-width="1.5"></path><path d="M1427.83 56.5L1557.2 75.02" stroke="hsl(0, 0%, 41.3%)" stroke-width="1.5"></path><path d="M1427.83 56.5L1544.29 -40.91" stroke="hsl(0, 0%, 41.3%)" stroke-width="1.5"></path><path d="M1416.62 210.25L1416.62 210.25" stroke="hsl(0, 0%, 41.3%)" stroke-width="1.5"></path><path d="M1416.62 210.25L1427.83 56.5" stroke="hsl(0, 0%, 41.3%)" stroke-width="1.5"></path><path d="M1425.69 411.14L1425.69 411.14" stroke="hsl(0, 0%, 41.3%)" stroke-width="1.5"></path><path d="M1425.69 411.14L1559.95 410.53" stroke="hsl(0, 0%, 41.3%)" stroke-width="1.5"></path><path d="M1425.69 411.14L1286.67 533.43" stroke="hsl(0, 0%, 41.3%)" stroke-width="1.5"></path><path d="M1425.69 411.14L1596.62 510.04" stroke="hsl(0, 0%, 41.3%)" stroke-width="1.5"></path><path d="M1425.69 411.14L1416.62 210.25" stroke="hsl(0, 0%, 41.3%)" stroke-width="1.5"></path><path d="M1446.75 637.58L1446.75 637.58" stroke="hsl(0, 0%, 41.3%)" stroke-width="1.5"></path><path d="M1446.75 637.58L1286.67 533.43" stroke="hsl(0, 0%, 41.3%)" stroke-width="1.5"></path><path d="M1446.75 637.58L1596.62 510.04" stroke="hsl(0, 0%, 41.3%)" stroke-width="1.5"></path><path d="M1446.75 637.58L1239.01 663.74" stroke="hsl(0, 0%, 41.3%)" stroke-width="1.5"></path><path d="M1446.75 637.58L1425.69 411.14" stroke="hsl(0, 0%, 41.3%)" stroke-width="1.5"></path><path d="M1544.29 -40.91L1544.29 -40.91" stroke="hsl(0, 0%, 41.3%)" stroke-width="1.5"></path><path d="M1544.29 -40.91L1557.2 75.02" stroke="hsl(0, 0%, 41.3%)" stroke-width="1.5"></path><path d="M1557.2 75.02L1557.2 75.02" stroke="hsl(0, 0%, 41.3%)" stroke-width="1.5"></path><path d="M1557.2 75.02L1565.46 251.15" stroke="hsl(0, 0%, 41.3%)" stroke-width="1.5"></path><path d="M1557.2 75.02L1416.62 210.25" stroke="hsl(0, 0%, 41.3%)" stroke-width="1.5"></path><path d="M1565.46 251.15L1565.46 251.15" stroke="hsl(0, 0%, 41.3%)" stroke-width="1.5"></path><path d="M1565.46 251.15L1416.62 210.25" stroke="hsl(0, 0%, 41.3%)" stroke-width="1.5"></path><path d="M1565.46 251.15L1559.95 410.53" stroke="hsl(0, 0%, 41.3%)" stroke-width="1.5"></path><path d="M1565.46 251.15L1425.69 411.14" stroke="hsl(0, 0%, 41.3%)" stroke-width="1.5"></path><path d="M1565.46 251.15L1427.83 56.5" stroke="hsl(0, 0%, 41.3%)" stroke-width="1.5"></path><path d="M1559.95 410.53L1559.95 410.53" stroke="hsl(0, 0%, 41.3%)" stroke-width="1.5"></path><path d="M1559.95 410.53L1596.62 510.04" stroke="hsl(0, 0%, 41.3%)" stroke-width="1.5"></path><path d="M1596.62 510.04L1596.62 510.04" stroke="hsl(0, 0%, 41.3%)" stroke-width="1.5"></path><path d="M1596.62 510.04L1565.46 251.15" stroke="hsl(0, 0%, 41.3%)" stroke-width="1.5"></path><path d="M1596.62 510.04L1286.67 533.43" stroke="hsl(0, 0%, 41.3%)" stroke-width="1.5"></path><path d="M1596.62 510.04L1416.62 210.25" stroke="hsl(0, 0%, 41.3%)" stroke-width="1.5"></path><circle r="25" cx="110.29" cy="496.58" fill="url(&quot;#SvgjsRadialGradient1033&quot;)"></circle><circle r="25" cx="365.75" cy="507.2" fill="url(&quot;#SvgjsRadialGradient1033&quot;)"></circle><circle r="25" cx="993.75" cy="688.91" fill="url(&quot;#SvgjsRadialGradient1033&quot;)"></circle><circle r="25" cx="1150.54" cy="405.36" fill="url(&quot;#SvgjsRadialGradient1033&quot;)"></circle><circle r="25" cx="1286.67" cy="533.43" fill="url(&quot;#SvgjsRadialGradient1033&quot;)"></circle><circle r="5" cx="-81.54" cy="553.19" fill="#a8a8a8"></circle><circle r="5" cx="-66.92" cy="709.14" fill="#a8a8a8"></circle><circle r="5" cx="221.76" cy="692.51" fill="#a8a8a8"></circle><circle r="5" cx="390.24" cy="683.9" fill="#a8a8a8"></circle><circle r="5" cx="501.23" cy="408.26" fill="#a8a8a8"></circle><circle r="5" cx="512.5" cy="488.13" fill="#a8a8a8"></circle><circle r="5" cx="503.3" cy="677.47" fill="#a8a8a8"></circle><circle r="5" cx="694.8" cy="376.58" fill="#a8a8a8"></circle><circle r="5" cx="705.65" cy="519.18" fill="#a8a8a8"></circle><circle r="5" cx="685.07" cy="666.74" fill="#a8a8a8"></circle><circle r="5" cx="825.6" cy="337.85" fill="#a8a8a8"></circle><circle r="5" cx="818.27" cy="554.96" fill="#a8a8a8"></circle><circle r="5" cx="857.41" cy="650.54" fill="#a8a8a8"></circle><circle r="5" cx="971.13" cy="399.92" fill="#a8a8a8"></circle><circle r="5" cx="998.35" cy="491.65" fill="#a8a8a8"></circle><circle r="5" cx="1097.36" cy="191.61" fill="#a8a8a8"></circle><circle r="5" cx="1107.38" cy="541.09" fill="#a8a8a8"></circle><circle r="5" cx="1105.29" cy="688.86" fill="#a8a8a8"></circle><circle r="5" cx="1268.56" cy="-73.67" fill="#a8a8a8"></circle><circle r="5" cx="1304.89" cy="103.98" fill="#a8a8a8"></circle><circle r="5" cx="1297.84" cy="245.11" fill="#a8a8a8"></circle><circle r="5" cx="1243.03" cy="372.72" fill="#a8a8a8"></circle><circle r="5" cx="1239.01" cy="663.74" fill="#a8a8a8"></circle><circle r="5" cx="1431.08" cy="-63.31" fill="#a8a8a8"></circle><circle r="5" cx="1427.83" cy="56.5" fill="#a8a8a8"></circle><circle r="5" cx="1416.62" cy="210.25" fill="#a8a8a8"></circle><circle r="5" cx="1425.69" cy="411.14" fill="#a8a8a8"></circle><circle r="5" cx="1446.75" cy="637.58" fill="#a8a8a8"></circle><circle r="5" cx="1544.29" cy="-40.91" fill="#a8a8a8"></circle><circle r="5" cx="1557.2" cy="75.02" fill="#a8a8a8"></circle><circle r="5" cx="1565.46" cy="251.15" fill="#a8a8a8"></circle><circle r="5" cx="1559.95" cy="410.53" fill="#a8a8a8"></circle><circle r="5" cx="1596.62" cy="510.04" fill="#a8a8a8"></circle></g><defs><mask id="SvgjsMask1032"><rect width="1440" height="560" fill="#ffffff"></rect></mask><radialGradient id="SvgjsRadialGradient1033"><stop stop-color="#ffffff" offset="0.1"></stop><stop stop-color="rgba(81, 81, 81, 1)" offset="0.2"></stop><stop stop-color="rgba(81, 81, 81, 0)" offset="1"></stop></radialGradient></defs></svg>