<svg xmlns="http://www.w3.org/2000/svg" version="1.1" xmlns:xlink="http://www.w3.org/1999/xlink" xmlns:svgjs="http://svgjs.dev/svgjs" width="1440" height="560" preserveAspectRatio="none" viewBox="0 0 1440 560"><g mask="url(&quot;#SvgjsMask1001&quot;)" fill="none"><rect width="1440" height="560" x="0" y="0" fill="rgba(30, 39, 46, 1)"></rect><path d="M0,405.667C74.754,407.224,130.728,341.617,192.065,298.859C250.991,257.781,316.589,223.291,351.598,160.569C388.091,95.188,412.425,15.397,390.189,-56.101C368.586,-125.564,282.556,-148.693,237.626,-205.904C189.292,-267.448,190.066,-371.554,118.174,-402.463C47.146,-433,-31.906,-381.699,-103.526,-352.577C-168.861,-326.011,-230.331,-292.849,-278.38,-241.218C-327.681,-188.241,-378.509,-127.071,-380.7,-54.736C-382.842,15.999,-324.286,70.562,-289.693,132.298C-258.26,188.396,-233.76,246.832,-186.992,290.965C-132.711,342.188,-74.618,404.113,0,405.667" fill="#181f25"></path><path d="M1440 1077.402C1559.712 1082.967 1679.317 1149.5700000000002 1791.057 1106.2559999999999 1909.531 1060.3319999999999 2017.95 962.048 2052.806 839.8589999999999 2086.936 720.215 1995.5819999999999 605.451 1968.5610000000001 484.004 1944.118 374.14300000000003 1973.08 246.95600000000002 1901.555 160.06 1829.695 72.757 1707.8220000000001 43.01400000000001 1595.423 30.678999999999974 1494.302 19.581000000000017 1398.915 59.702999999999975 1303.288 94.40199999999999 1213.403 127.017 1128.44 165.06099999999998 1055.308 226.663 971.576 297.194 885.59 371.43100000000004 851.07 475.325 813.368 588.796 808.606 716.929 855.927 826.7370000000001 903.65 937.4780000000001 998.496 1027.009 1109.308 1074.566 1212.701 1118.9389999999999 1327.608 1072.1779999999999 1440 1077.402" fill="#242f37"></path></g><defs><mask id="SvgjsMask1001"><rect width="1440" height="560" fill="#ffffff"></rect></mask></defs></svg>