<svg xmlns="http://www.w3.org/2000/svg" version="1.1" xmlns:xlink="http://www.w3.org/1999/xlink" xmlns:svgjs="http://svgjs.dev/svgjs" width="1440" height="560" preserveAspectRatio="none" viewBox="0 0 1440 560"><g mask="url(&quot;#SvgjsMask1002&quot;)" fill="none"><rect width="1440" height="560" x="0" y="0" fill="rgba(30, 39, 46, 1)"></rect><path d="M0 251.26L10 268.52L20 303.09L30 336.13L40 323.76L50 264.79L60 261.51L70 316.68L80 257.75L90 191.75L100 226.33L110 271.73L120 339.53L130 382.89L140 398.06L150 445.19L160 450.8L170 425.81L180 465L190 418.03L200 422.15L210 468.48L220 427.65L230 474.77L240 414.99L250 430.61L260 425.11L270 422.6L280 424.8L290 380.26L300 352.56L310 398.16L320 376.76L330 350.15L340 405.81L350 393.33L360 341.21L370 345.82L380 351.31L390 316.85L400 276.05L410 324.4L420 261.43L430 219.86L440 271.03L450 239.78L460 256.55L470 305.53L480 285.78L490 233.09L500 239.14L510 219.96L520 188.42L530 181.68L540 176.4L550 182.98L560 153.77L570 120.61L580 96.04L590 120.83L600 182.63L610 179.01L620 172.02L630 214.34L640 256.76L650 244.74L660 279.45L670 295.61L680 251.24L690 242.74L700 195.52L710 230.76L720 211.05L730 263.83L740 276.81L750 266.27L760 199.56L770 263.17L780 239.71L790 246.73L800 296.65L810 346.33L820 347.13L830 342.49L840 277.35L850 279.06L860 311.99L870 303.3L880 350.71L890 335.14L900 294.16L910 337.1L920 352.29L930 293.82L940 229.49L950 200.31L960 267.54L970 227.78L980 275.37L990 228.52L1000 221.2L1010 198.19L1020 259.34L1030 284.9L1040 238.56L1050 287.28L1060 283.1L1070 317.11L1080 372.24L1090 332.07L1100 362.97L1110 404.22L1120 405.91L1130 361.42L1140 377.28L1150 312.66L1160 291.42L1170 236.77L1180 217.54L1190 147.8L1200 111.62L1210 86.28L1220 118.75L1230 165.54L1240 101.28L1250 92.21L1260 71.85L1270 95.07L1280 110.11L1290 162.68L1300 232.19L1310 244.78L1320 240.95L1330 267.75L1340 232.02L1350 271.71L1360 247.52L1370 186.79L1380 249.95L1390 204L1400 134.38L1410 202.59L1420 224.52L1430 163.27L1440 216.34" stroke="#224b75" stroke-width="2"></path><path d="M0 251.26L10 268.52L20 303.09L30 336.13L40 323.76L50 264.79L60 261.51L70 316.68L80 257.75L90 191.75L100 226.33L110 271.73L120 339.53L130 382.89L140 398.06L150 445.19L160 450.8L170 425.81L180 465L190 418.03L200 422.15L210 468.48L220 427.65L230 474.77L240 414.99L250 430.61L260 425.11L270 422.6L280 424.8L290 380.26L300 352.56L310 398.16L320 376.76L330 350.15L340 405.81L350 393.33L360 341.21L370 345.82L380 351.31L390 316.85L400 276.05L410 324.4L420 261.43L430 219.86L440 271.03L450 239.78L460 256.55L470 305.53L480 285.78L490 233.09L500 239.14L510 219.96L520 188.42L530 181.68L540 176.4L550 182.98L560 153.77L570 120.61L580 96.04L590 120.83L600 182.63L610 179.01L620 172.02L630 214.34L640 256.76L650 244.74L660 279.45L670 295.61L680 251.24L690 242.74L700 195.52L710 230.76L720 211.05L730 263.83L740 276.81L750 266.27L760 199.56L770 263.17L780 239.71L790 246.73L800 296.65L810 346.33L820 347.13L830 342.49L840 277.35L850 279.06L860 311.99L870 303.3L880 350.71L890 335.14L900 294.16L910 337.1L920 352.29L930 293.82L940 229.49L950 200.31L960 267.54L970 227.78L980 275.37L990 228.52L1000 221.2L1010 198.19L1020 259.34L1030 284.9L1040 238.56L1050 287.28L1060 283.1L1070 317.11L1080 372.24L1090 332.07L1100 362.97L1110 404.22L1120 405.91L1130 361.42L1140 377.28L1150 312.66L1160 291.42L1170 236.77L1180 217.54L1190 147.8L1200 111.62L1210 86.28L1220 118.75L1230 165.54L1240 101.28L1250 92.21L1260 71.85L1270 95.07L1280 110.11L1290 162.68L1300 232.19L1310 244.78L1320 240.95L1330 267.75L1340 232.02L1350 271.71L1360 247.52L1370 186.79L1380 249.95L1390 204L1400 134.38L1410 202.59L1420 224.52L1430 163.27L1440 216.34L1440 560L0 560z" fill="url(&quot;#SvgjsLinearGradient1003&quot;)"></path></g><defs><mask id="SvgjsMask1002"><rect width="1440" height="560" fill="#ffffff"></rect></mask><linearGradient x1="50%" y1="0%" x2="50%" y2="100%" id="SvgjsLinearGradient1003"><stop stop-opacity="0.65" stop-color="#224b75" offset="0"></stop><stop stop-opacity="0" stop-color="#508dcc" offset="0.8"></stop></linearGradient></defs></svg>