<?xml version="1.0" encoding="UTF-8"?>
<svg id="Layer_1" data-name="Layer 1" xmlns="http://www.w3.org/2000/svg" viewBox="0 0 93.96 55.34">
  <path d="m0,43.61c0-1.84.54-3.3,1.63-4.39.46-.44.79-.71.99-.8-.38-.78-.61-1.8-.67-3.06.03-2.47.86-4.53,2.48-6.18,1.62-1.67,3.62-2.51,6-2.51,2.1,0,4.08.51,5.93,1.54,1.85,1.04,3.48,2.71,4.87,4.99l-1.98,1.01c-1.81.84-3.55.74-5.22-.32-1.23-.81-2.43-1.22-3.61-1.22-.77,0-1.4.31-1.91.94-.51.64-.66,1.39-.46,2.23.2.55.51.98.94,1.29.46.32.97.48,1.54.48h7.47c1.53,0,2.83.54,3.91,1.61,1.09,1.09,1.63,2.55,1.63,4.39H0Z" fill="#1e272e" stroke-width="0"/>
  <path d="m33.23,45.61c-2.57-.03-4.76-.98-6.56-2.83-1.85-1.87-2.78-4.12-2.78-6.77V13.69c0-1.68,1.68-2.05,5.04-1.12-.88-3.29-.23-4.93,1.96-4.93v28.49c0,.7.25,1.29.76,1.76.49.49,1.1.73,1.83.73h1.4v7h-1.65Z" fill="#1e272e" stroke-width="0"/>
  <path d="m52.17,9.36c-.46,1.88-1.32,3.07-2.57,3.58l-14.78,6.12c.51-1.76,1.4-2.92,2.68-3.48l14.68-6.23Z" fill="#5b913b" stroke-width="0"/>
  <path d="m39.88,28.12c0-1.68,1.54-2.25,4.63-1.71-.63-2.91.16-4.37,2.37-4.37v13.98c0,2.63-.92,4.9-2.75,6.8-1.87,1.87-4.09,2.8-6.68,2.8h-4.57v-7h4.38c.55,0,1.11-.14,1.55-.47.71-.54,1.07-1.21,1.07-2.02v-8.01Zm.99,26.1c-.75.75-1.64,1.12-2.69,1.12s-1.94-.37-2.69-1.12c-.75-.75-1.12-1.64-1.12-2.69s.37-1.94,1.12-2.69c.75-.75,1.64-1.12,2.69-1.12s1.94.37,2.69,1.12c.75.75,1.12,1.64,1.12,2.69s-.38,1.94-1.12,2.69Z" fill="#1e272e" stroke-width="0"/>
  <path d="m60.88,36.03c0,.9.39,1.62,1.16,2.15.44.31.99.44,1.52.44h.31s0,7,0,7h-.4c-1.6,0-2.79-.21-3.59-.63-.59,1.86-1.83,3.69-3.72,5.5-3.16,3.04-7.26,4.54-12.32,4.49l4.63-1.85c-3.09-2.32-3.08-4.24.03-5.78,3.58-1.74,5.37-4.42,5.37-8.04v-11.59c0-1.72,1.48-2.24,4.45-1.55-.51-3.16.34-4.74,2.55-4.74v14.61Z" fill="#1e272e" stroke-width="0"/>
  <path d="m78.6,9.79l-1.86-1.97c-2.87,2.13-5.02,3.03-6.42,2.68-.32-.08-.85-.32-1.57-.74,2.11-.59,4.43-1.56,6.97-2.91-.93-1.1-1.3-2.06-1.11-2.88.25-1.08.94-2.14,2.08-3.17.74-.67,1.49-.91,2.26-.74,1.26.3,1.69,1.28,1.31,2.91-.19.84-.74,1.85-1.66,3.03.15.17.45.54.89,1.11l-.89,2.68Zm-.28-7.3c-.16-.36-.42-.58-.76-.66-.29-.08-.48.04-.56.37-.11.47.26,1.19,1.12,2.15.18-.33.29-.58.34-.76.08-.37.03-.74-.15-1.1Z" fill="red" stroke-width="0"/>
  <path d="m87.65,38.61c1.73,0,3.22.62,4.45,1.86,1.24,1.24,1.86,2.95,1.86,5.14h-31.08v-7h4.28c-.68-1.1-1.02-2.81-1.02-5.12,0-3.29,1.13-6.09,3.39-8.4,2.24-2.31,5.03-3.55,8.37-3.74l1.48.05c5.06.34,9.37,3.33,12.93,8.96l-4.25-1.53c-1.34,2.19-3.03,2.55-5.07,1.07-1.19-.88-2.55-1.39-4.1-1.53l-.79-.03c-1.41.1-2.57.61-3.49,1.53-.93.97-1.43,2.13-1.48,3.49.02,1.44.51,2.66,1.48,3.64,1,1,2.21,1.54,3.64,1.6h9.39Zm-8.74-19.53c-.75.73-1.65,1.1-2.71,1.1s-1.92-.37-2.69-1.1c-.75-.75-1.12-1.65-1.12-2.71s.37-1.94,1.12-2.69c.75-.75,1.64-1.12,2.69-1.12s1.96.37,2.71,1.12c.73.75,1.1,1.64,1.1,2.69s-.37,1.95-1.1,2.71Z" fill="#1e272e" stroke-width="0"/>
</svg>